<?xml version="1.0" encoding="UTF-8" standalone="no"?>
<!DOCTYPE svg PUBLIC "-//W3C//DTD SVG 1.1//EN" "http://www.w3.org/Graphics/SVG/1.1/DTD/svg11.dtd">
<svg version="1.1" xmlns="http://www.w3.org/2000/svg" xmlns:xlink="http://www.w3.org/1999/xlink" preserveAspectRatio="xMidYMid meet" viewBox="0 0 32 32" width="32" height="32"><defs><path d="M26.53 16C26.53 24.83 20.58 32 13.26 32C5.94 32 0 24.83 0 16C0 7.17 5.94 0 13.26 0C20.58 0 26.53 7.17 26.53 16Z" id="agCx9kTLl"></path><path d="M24.87 16C24.87 23.73 19.67 30 13.26 30C6.86 30 1.66 23.73 1.66 16C1.66 8.27 6.86 2 13.26 2C19.67 2 24.87 8.27 24.87 16Z" id="f9CkvR0i6"></path><path d="M0 0L13.26 0L13.26 32L0 32L0 0Z" id="d1J9rnUFgx"></path><path d="M1.66 2L13.66 2L13.66 30L1.66 30L1.66 2Z" id="a1bVDX2OQJ"></path><path d="M32 16C32 18.21 30.51 20 28.68 20C26.85 20 25.37 18.21 25.37 16C25.37 13.79 26.85 12 28.68 12C30.51 12 32 13.79 32 16Z" id="a2TtOBObgH"></path><path d="M30.34 16C30.34 17.1 29.6 18 28.68 18C27.77 18 27.03 17.1 27.03 16C27.03 14.9 27.77 14 28.68 14C29.6 14 30.34 14.9 30.34 16Z" id="a2HxyphUlU"></path></defs><g><g><g><use xlink:href="#agCx9kTLl" opacity="1" fill="#000000" fill-opacity="1"></use></g><g><use xlink:href="#f9CkvR0i6" opacity="1" fill="#ffffff" fill-opacity="1"></use></g><g><use xlink:href="#d1J9rnUFgx" opacity="1" fill="#000000" fill-opacity="1"></use></g><g><use xlink:href="#a1bVDX2OQJ" opacity="1" fill="#ffffff" fill-opacity="1"></use></g><g><use xlink:href="#a2TtOBObgH" opacity="1" fill="#000000" fill-opacity="1"></use></g><g><use xlink:href="#a2HxyphUlU" opacity="1" fill="#ffffff" fill-opacity="1"></use></g></g></g></svg>