<?xml version="1.0" encoding="UTF-8" standalone="no"?>
<!DOCTYPE svg PUBLIC "-//W3C//DTD SVG 1.1//EN" "http://www.w3.org/Graphics/SVG/1.1/DTD/svg11.dtd">
<svg version="1.1" xmlns="http://www.w3.org/2000/svg" xmlns:xlink="http://www.w3.org/1999/xlink" preserveAspectRatio="xMidYMid meet" viewBox="0 0 32 32" width="32" height="32"><defs><path d="M-0.13 8C-0.13 3.58 3.18 0 7.25 0C18.53 0 24.13 16 24.44 16C24.44 16 24.44 16 24.44 16C24.13 16 18.53 32 7.25 32C3.17 32 -0.13 28.42 -0.13 24C-0.13 19.58 2.77 16 6.84 16C2.77 16 -0.13 12.42 -0.13 8Z" id="c4apN3Kwe"></path><path d="M-0.13 0L6.82 0L6.82 32L-0.13 32L-0.13 0Z" id="aWYszrXwx"></path><path d="M3.35 15.94C3.4 25.81 0.77 33.84 -2.53 33.87C-5.82 33.91 -8.55 25.92 -8.6 16.06C-8.66 6.19 -6.03 -1.84 -2.73 -1.87C0.57 -1.91 3.29 6.08 3.35 15.94Z" id="adlRLQN2n"></path><path d="M3.39 2.06L4.53 2.06L5.57 2.06L6.6 2.13L7.52 2.2L8.5 2.34L9.59 2.82L10.68 3.09L11.55 3.5L12.47 4.05L13.23 4.67L14.1 5.28L15.03 5.97L15.95 6.58L16.93 7.61L17.64 8.43L18.45 9.39L19.11 10.21L19.65 11.1L20.25 12.06L20.79 12.95L21.28 13.98L21.77 15.01L21.93 16.17L21.61 17.27L20.74 18.09L19.92 18.71L19.11 19.39L18.24 20.28L17.26 21.44L16.6 22.2L15.79 22.95L14.81 23.91L13.94 24.66L13.07 25.35L12.04 26.31L11.28 26.99L10.51 27.54L9.48 28.23L8.61 28.57L7.58 29.05L6.71 29.39L5.73 29.66L4.64 29.73L3.66 29.94L3.83 28.64L4.21 27.47L4.59 26.31L4.91 25.14L5.19 23.71L5.4 22.47L5.67 20.9L5.84 19.73L6 18.57L6 16.92L6 15.28L6 13.57L5.89 12.27L5.57 10.56L5.29 9.25L4.91 7.75L4.48 6.38L4.21 5.08L3.72 4.05L3.17 3.09" id="b3qEihhfMk"></path><path d="M32 16C32 18.74 29.77 20.97 27.03 20.97C24.29 20.97 22.06 18.74 22.06 16C22.06 13.26 24.29 11.03 27.03 11.03C29.77 11.03 32 13.26 32 16Z" id="a3No2EIvk2"></path><path d="M30.5 15.82C30.5 17.73 28.95 19.29 27.03 19.29C25.11 19.29 23.56 17.73 23.56 15.82C23.56 13.9 25.11 12.34 27.03 12.34C28.95 12.34 30.5 13.9 30.5 15.82Z" id="a4K8IkwpRf"></path></defs><g><g><g><use xlink:href="#c4apN3Kwe" opacity="1" fill="#000000" fill-opacity="1"></use></g><g><use xlink:href="#aWYszrXwx" opacity="1" fill="#000000" fill-opacity="1"></use></g><g><use xlink:href="#adlRLQN2n" opacity="1" fill="#ffffff" fill-opacity="1"></use></g><g><use xlink:href="#b3qEihhfMk" opacity="1" fill="#ffffff" fill-opacity="1"></use><g><use xlink:href="#b3qEihhfMk" opacity="1" fill-opacity="0" stroke="#000000" stroke-width="1" stroke-opacity="1"></use></g></g><g><use xlink:href="#a3No2EIvk2" opacity="1" fill="#000000" fill-opacity="1"></use></g><g><use xlink:href="#a4K8IkwpRf" opacity="1" fill="#ffffff" fill-opacity="1"></use></g></g></g></svg>