<?xml version="1.0" encoding="UTF-8" standalone="no"?>
<!DOCTYPE svg PUBLIC "-//W3C//DTD SVG 1.1//EN" "http://www.w3.org/Graphics/SVG/1.1/DTD/svg11.dtd">
<svg version="1.1" xmlns="http://www.w3.org/2000/svg" xmlns:xlink="http://www.w3.org/1999/xlink" preserveAspectRatio="xMidYMid meet" viewBox="0 0 32 32" width="32" height="32"><defs><path d="M12.16 24L0 32L0 16L0 0L12.16 8L24.31 16L12.16 24Z" id="deBXRucy8"></path><path d="M32 16C32 18.76 29.76 21 27 21C24.24 21 22 18.76 22 16C22 13.24 24.24 11 27 11C29.76 11 32 13.24 32 16Z" id="c42DUGAd3W"></path><path d="M30.61 16C30.61 17.93 29 19.5 27 19.5C25 19.5 23.38 17.93 23.38 16C23.38 14.07 25 12.5 27 12.5C29 12.5 30.61 14.07 30.61 16Z" id="e2hrk26xT"></path><path d="M11.44 22.38L1.75 28.75L1.75 16L1.75 3.25L11.44 9.62L21.12 16L11.44 22.38Z" id="a3nKUn0nrZ"></path></defs><g><g><g><use xlink:href="#deBXRucy8" opacity="1" fill="#000000" fill-opacity="1"></use></g><g><use xlink:href="#c42DUGAd3W" opacity="1" fill="#000000" fill-opacity="1"></use></g><g><use xlink:href="#e2hrk26xT" opacity="1" fill="#ffffff" fill-opacity="1"></use></g><g><use xlink:href="#a3nKUn0nrZ" opacity="1" fill="#ffffff" fill-opacity="1"></use></g></g></g></svg>