<?xml version="1.0" encoding="UTF-8" standalone="no"?>
<!DOCTYPE svg PUBLIC "-//W3C//DTD SVG 1.1//EN" "http://www.w3.org/Graphics/SVG/1.1/DTD/svg11.dtd">
<svg version="1.1" xmlns="http://www.w3.org/2000/svg" xmlns:xlink="http://www.w3.org/1999/xlink" preserveAspectRatio="xMidYMid meet" viewBox="0 0 32 32" width="32" height="32"><defs><path d="M0 8C0 3.58 4.3 0 9.61 0C24.3 0 31.6 16 32 16C32 16 32 16 32 16C31.6 16 24.3 32 9.61 32C4.3 32 0 28.42 0 24C0 19.58 3.77 16 9.08 16C3.77 16 0 12.42 0 8Z" id="bfp2k814j"></path><path d="M0 0L9.05 0L9.05 32L0 32L0 0Z" id="a7TvKQ0Tw"></path><path d="M4.52 15.94C4.6 25.81 1.17 33.84 -3.13 33.87C-7.42 33.91 -10.97 25.92 -11.04 16.06C-11.11 6.19 -7.69 -1.84 -3.39 -1.87C0.9 -1.91 4.45 6.08 4.52 15.94Z" id="gJZP6hqB9"></path><path d="M4.58 2.06L6.07 2.06L7.42 2.06L8.76 2.13L9.97 2.2L11.24 2.34L12.66 2.82L14.07 3.09L15.21 3.5L16.41 4.05L17.4 4.67L18.54 5.28L19.74 5.97L20.95 6.58L22.22 7.61L23.14 8.43L24.2 9.39L25.05 10.21L25.76 11.1L26.54 12.06L27.25 12.95L27.89 13.98L28.52 15.01L28.74 16.17L28.31 17.27L27.18 18.09L26.12 18.71L25.05 19.39L23.92 20.28L22.65 21.44L21.8 22.2L20.73 22.95L19.46 23.91L18.32 24.66L17.19 25.35L15.85 26.31L14.85 26.99L13.86 27.54L12.52 28.23L11.38 28.57L10.04 29.05L8.9 29.39L7.63 29.66L6.21 29.73L4.94 29.94L5.15 28.64L5.65 27.47L6.14 26.31L6.57 25.14L6.92 23.71L7.2 22.47L7.56 20.9L7.77 19.73L7.98 18.57L7.98 16.92L7.98 15.28L7.98 13.57L7.84 12.27L7.42 10.56L7.06 9.25L6.57 7.75L6 6.38L5.65 5.08L5.01 4.05L4.3 3.09" id="d1wc5NYtmP"></path></defs><g><g><g><use xlink:href="#bfp2k814j" opacity="1" fill="#000000" fill-opacity="1"></use></g><g><use xlink:href="#a7TvKQ0Tw" opacity="1" fill="#000000" fill-opacity="1"></use></g><g><use xlink:href="#gJZP6hqB9" opacity="1" fill="#ffffff" fill-opacity="1"></use></g><g><use xlink:href="#d1wc5NYtmP" opacity="1" fill="#ffffff" fill-opacity="1"></use><g><use xlink:href="#d1wc5NYtmP" opacity="1" fill-opacity="0" stroke="#000000" stroke-width="1" stroke-opacity="1"></use></g></g></g></g></svg>