<?xml version="1.0" encoding="UTF-8" standalone="no"?>
<!DOCTYPE svg PUBLIC "-//W3C//DTD SVG 1.1//EN" "http://www.w3.org/Graphics/SVG/1.1/DTD/svg11.dtd">
<svg version="1.1" xmlns="http://www.w3.org/2000/svg" xmlns:xlink="http://www.w3.org/1999/xlink" preserveAspectRatio="xMidYMid meet" viewBox="0 0 32 32" width="32" height="32"><defs><path d="M3.9 8C3.9 3.58 7.68 0 12.34 0C25.24 0 31.64 16 32 16C32 16 32 16 32 16C31.64 16 25.24 32 12.34 32C7.68 32 3.9 28.42 3.9 24C3.9 19.58 7.21 16 11.87 16C7.21 16 3.9 12.42 3.9 8Z" id="f5pmOOh0T"></path><path d="M3.9 0L11.85 0L11.85 32L3.9 32L3.9 0Z" id="aalqYqUBw"></path><path d="M7.88 15.94C7.94 25.81 4.93 33.84 1.16 33.87C-2.61 33.91 -5.73 25.92 -5.79 16.06C-5.85 6.19 -2.85 -1.84 0.93 -1.87C4.7 -1.91 7.81 6.08 7.88 15.94Z" id="a5VbdgdMd"></path><path d="M7.93 2.06L9.23 2.06L10.42 2.06L11.6 2.13L12.65 2.2L13.77 2.34L15.02 2.82L16.26 3.09L17.26 3.5L18.31 4.05L19.18 4.67L20.18 5.28L21.24 5.97L22.29 6.58L23.41 7.61L24.22 8.43L25.15 9.39L25.9 10.21L26.52 11.1L27.21 12.06L27.83 12.95L28.39 13.98L28.95 15.01L29.14 16.17L28.76 17.27L27.77 18.09L26.83 18.71L25.9 19.39L24.91 20.28L23.79 21.44L23.04 22.2L22.11 22.95L20.99 23.91L19.99 24.66L19 25.35L17.82 26.31L16.95 26.99L16.07 27.54L14.89 28.23L13.9 28.57L12.72 29.05L11.72 29.39L10.6 29.66L9.36 29.73L8.24 29.94L8.42 28.64L8.86 27.47L9.3 26.31L9.67 25.14L9.98 23.71L10.23 22.47L10.54 20.9L10.73 19.73L10.91 18.57L10.91 16.92L10.91 15.28L10.91 13.57L10.79 12.27L10.42 10.56L10.1 9.25L9.67 7.75L9.17 6.38L8.86 5.08L8.3 4.05L7.68 3.09" id="g15kRAgSl"></path><path d="M0 0.19L0.67 1.07L1.12 2.01L1.42 3.08L1.87 4.09L2.32 5.09L2.62 6.1L3.07 7.04L3.52 8.05L3.97 8.99L4.05 10.18L4.05 11.32L4.05 12.45L4.05 13.52L4.05 14.58L3.9 15.59L3.82 16.6L3.82 17.73L3.82 18.92L3.9 20.05L3.97 21.06L3.97 22.25L3.75 23.26L3.37 24.27L3 25.33L2.62 26.34L2.25 27.35L1.95 28.35L1.8 29.36L1.5 30.36L0.97 31.31L0.37 32.19" id="fF1cOV2ez"></path></defs><g><g><g><use xlink:href="#f5pmOOh0T" opacity="1" fill="#000000" fill-opacity="1"></use></g><g><use xlink:href="#aalqYqUBw" opacity="1" fill="#000000" fill-opacity="1"></use></g><g><use xlink:href="#a5VbdgdMd" opacity="1" fill="#ffffff" fill-opacity="1"></use></g><g><use xlink:href="#g15kRAgSl" opacity="1" fill="#ffffff" fill-opacity="1"></use><g><use xlink:href="#g15kRAgSl" opacity="1" fill-opacity="0" stroke="#000000" stroke-width="0" stroke-opacity="1"></use></g></g><g><g><use xlink:href="#fF1cOV2ez" opacity="1" fill-opacity="0" stroke="#000000" stroke-width="3" stroke-opacity="1"></use></g></g></g></g></svg>