<?xml version="1.0" encoding="UTF-8" standalone="no"?>
<!DOCTYPE svg PUBLIC "-//W3C//DTD SVG 1.1//EN" "http://www.w3.org/Graphics/SVG/1.1/DTD/svg11.dtd">
<svg version="1.1" xmlns="http://www.w3.org/2000/svg" xmlns:xlink="http://www.w3.org/1999/xlink" preserveAspectRatio="xMidYMid meet" viewBox="0 0 640 640" width="100" height="100"><defs><path d="M0 0L100 0L100 10L0 10L0 0Z" id="bFyt5qSOR"></path><path d="M0 190L100 190L100 200L0 200L0 190Z" id="gtZA6QFvf"></path><path d="M200 100C200 155.19 155.19 200 100 200C44.81 200 0 155.19 0 100C0 44.81 44.81 0 100 0C155.19 0 200 44.81 200 100Z" id="atMRvku6y"></path><path d="M190 100C190 149.67 149.67 190 100 190C50.33 190 10 149.67 10 100C10 50.33 50.33 10 100 10C149.67 10 190 50.33 190 100Z" id="aLDVLQ6cN"></path><path d="M0 10L100 10L100 190L0 190L0 10Z" id="c13BHqCsZJ"></path><path d="M0 0L10 0L10 200L0 200L0 0Z" id="b35thOT6kp"></path></defs><g><g><g><use xlink:href="#bFyt5qSOR" opacity="1" fill="#000000" fill-opacity="1"></use><g><use xlink:href="#bFyt5qSOR" opacity="1" fill-opacity="0" stroke="#000000" stroke-width="1" stroke-opacity="1"></use></g></g><g><use xlink:href="#gtZA6QFvf" opacity="1" fill="#000000" fill-opacity="1"></use><g><use xlink:href="#gtZA6QFvf" opacity="1" fill-opacity="0" stroke="#000000" stroke-width="1" stroke-opacity="1"></use></g></g><g><use xlink:href="#atMRvku6y" opacity="1" fill="#000000" fill-opacity="1"></use><g><use xlink:href="#atMRvku6y" opacity="1" fill-opacity="0" stroke="#000000" stroke-width="1" stroke-opacity="1"></use></g></g><g><use xlink:href="#aLDVLQ6cN" opacity="1" fill="#ffffff" fill-opacity="1"></use><g><use xlink:href="#aLDVLQ6cN" opacity="1" fill-opacity="0" stroke="#ffffff" stroke-width="1" stroke-opacity="1"></use></g></g><g><use xlink:href="#c13BHqCsZJ" opacity="1" fill="#ffffff" fill-opacity="1"></use><g><use xlink:href="#c13BHqCsZJ" opacity="1" fill-opacity="0" stroke="#ffffff" stroke-width="1" stroke-opacity="1"></use></g></g><g><use xlink:href="#b35thOT6kp" opacity="1" fill="#000000" fill-opacity="1"></use><g><use xlink:href="#b35thOT6kp" opacity="1" fill-opacity="0" stroke="#000000" stroke-width="1" stroke-opacity="1"></use></g></g></g></g></svg>