<?xml version="1.0" standalone="no"?>
<!DOCTYPE svg PUBLIC "-//W3C//DTD SVG 20010904//EN"
 "http://www.w3.org/TR/2001/REC-SVG-20010904/DTD/svg10.dtd">
<svg version="1.0" xmlns="http://www.w3.org/2000/svg"
 width="32.000000pt" height="32.000000pt" viewBox="0 0 32.000000 32.000000"
 preserveAspectRatio="xMidYMid meet">
<metadata>
Created by potrace 1.16, written by Peter Selinger 2001-2019
</metadata>
<g transform="translate(0.000000,32.000000) scale(0.100000,-0.100000)"
fill="#000000" stroke="none">
<path d="M0 160 l0 -160 101 0 c115 0 156 14 192 64 31 44 31 148 0 192 -36
50 -77 64 -192 64 l-101 0 0 -160z m230 114 c81 -48 81 -180 0 -228 -20 -11
-52 -16 -114 -16 l-86 0 0 130 0 130 86 0 c62 0 94 -5 114 -16z"/>
</g>
</svg>
