<svg width="32" height="32" xmlns="http://www.w3.org/2000/svg">
 <!-- Created with Method Draw - http://github.com/duopixel/Method-Draw/ -->
 <g>
  <title>background</title>
  <rect fill="#fff" id="canvas_background" height="34" width="34" y="-1" x="-1"/>
  <g display="none" overflow="visible" y="0" x="0" height="100%" width="100%" id="canvasGrid">
   <rect fill="url(#gridpattern)" stroke-width="0" y="0" x="0" height="100%" width="100%"/>
  </g>
 </g>
 <g>
  <title>Layer 1</title>
  <path d="m0.01518,0.51786c0.0505,0 0.10101,0 0.20202,0c0.0505,0 0.10101,0 0.15151,0c0.0505,0 0.10101,0 0.15151,0c0.0505,0 0.10101,0 0.15151,0c0.0505,0 0.10101,0 0.15151,0c0.0505,0 0.15151,0 0.25252,0c0.10101,0 0.20202,0 0.25252,0c0.10101,0 0.20202,-0.05051 0.30303,-0.05051c0.10101,0 0.20202,0 0.30303,0c0.0505,0 0.10101,0 0.20202,0c0.0505,0 0.15152,0 0.25252,0c0.0505,0 0.15152,0 0.20202,0c0.15151,0 0.25252,0 0.35353,0c0.10101,0 0.20202,0 0.30303,0c0.10101,0 0.20202,0 0.30303,0c0.10101,0 0.20202,0 0.30303,0c0.0505,0 0.20202,0 0.35353,0c0.15152,0 0.29413,0.02456 0.40404,0.05051c0.09831,0.02321 0.20202,0 0.35353,0c0.15152,0 0.35353,0 0.50505,0c0.10101,0 0.25252,0 0.40404,0.0505c0.15152,0.05051 0.3474,0.07543 0.50505,0.10101c0.19941,0.03236 0.35549,-0.02427 0.50505,0c0.15765,0.02558 0.2999,0.07567 0.60606,0.10101c0.25166,0.02083 0.45454,0 0.60606,0c0.15152,0 0.35353,0.05051 0.55556,0.05051c0.20202,0 0.35353,0 0.50505,0c0.20202,0 0.30303,0 0.50505,0c0.20202,0 0.35353,0 0.45455,0c0.15152,0 0.25252,0.0505 0.40404,0.0505c0.20202,0 0.35353,0.0505 0.55555,0.0505c0.15152,0 0.30377,0.03557 0.45455,0.0505c0.25627,0.02538 0.44989,0.07557 0.65656,0.10101c0.15038,0.01851 0.34888,0.02506 0.55555,0.0505c0.15038,0.01851 0.30512,-0.00772 0.50505,0.05051c0.15334,0.04465 0.3474,0.07543 0.50505,0.10101c0.0997,0.01618 0.29321,0.07315 0.50505,0.15151c0.1953,0.07225 0.45843,0.08745 0.65656,0.15151c0.25879,0.08368 0.50391,0.15633 0.70707,0.20202c0.25125,0.0565 0.35353,0.10101 0.50505,0.15151c0.15151,0.0505 0.20598,0.0904 0.35353,0.15152c0.10434,0.04322 0.20202,0.10101 0.30303,0.15151c0.10101,0.0505 0.19256,0.11146 0.30303,0.20202c0.14083,0.11545 0.29705,0.21163 0.45455,0.30303c0.19535,0.11337 0.31108,0.18236 0.45454,0.25252c0.16358,0.08001 0.25586,0.19584 0.35353,0.25252c0.1575,0.0914 0.26192,0.13599 0.35353,0.20202c0.11588,0.08353 0.24306,0.11145 0.35353,0.20202c0.14082,0.11545 0.26192,0.13599 0.35353,0.20202c0.11588,0.08353 0.26192,0.13599 0.35353,0.20202c0.17383,0.12529 0.24654,0.21163 0.40404,0.30303c0.09768,0.05668 0.16091,0.03498 0.25253,0.10101c0.05794,0.04176 0.1104,0.08548 0.20202,0.15152c0.05794,0.04176 0.08548,0.0599 0.15152,0.15151c0.04176,0.05794 0.1622,0.08657 0.30303,0.20202c0.05523,0.04528 0.15906,0.12496 0.20202,0.15151c0.09607,0.05937 0.17267,0.12216 0.25253,0.20202c0.07985,0.07986 0.10101,0.15151 0.15152,0.20202c0.10101,0.10101 0.18649,0.21141 0.25252,0.30303c0.04176,0.05794 0.06004,0.07148 0.10101,0.10101c0.12956,0.09338 0.17931,0.33541 0.30303,0.55555c0.13325,0.2371 0.13916,0.41071 0.25253,0.60606c0.0914,0.1575 0.20202,0.40404 0.30303,0.60606c0.10101,0.20202 0.16113,0.34755 0.25253,0.50505c0.11337,0.19535 0.1588,0.35021 0.20202,0.45455c0.06112,0.14755 0.12202,0.18995 0.20202,0.35353c0.07017,0.14347 0.04303,0.26406 0.10101,0.40404c0.05467,0.13198 0.0904,0.20598 0.15152,0.35353c0.04322,0.10434 0.12557,0.19312 0.15151,0.30303c0.03481,0.14746 0.05779,0.2997 0.10101,0.40404c0.06112,0.14755 0.10101,0.25253 0.15152,0.40404c0.0505,0.15152 0.09039,0.30699 0.15151,0.45454c0.04322,0.10434 0.07506,0.14261 0.10101,0.25253c0.03481,0.14746 0.03989,0.25649 0.10101,0.40404c0.04322,0.10434 0.0389,0.20337 0.0505,0.25252c0.02595,0.10991 0.07506,0.19312 0.10101,0.30303c0.0116,0.04915 0.00874,0.14408 0.0505,0.20202c0.06603,0.09162 0.05051,0.25253 0.10101,0.40404c0.0505,0.15152 0.01185,0.26021 0.0505,0.35353c0.02733,0.06599 0.07506,0.09211 0.10101,0.20202c0.0116,0.04915 0.0505,0.10101 0.0505,0.20202c0,0.10101 0.02317,0.13603 0.0505,0.20202c0.03865,0.09332 0,0.15152 0,0.30303c0,0.10101 0.0157,0.20607 0.05051,0.35353c0.02595,0.10991 0.0505,0.25252 0.0505,0.35353c0,0.0505 0,0.10101 0,0.15152c0,0.15152 0,0.20202 0,0.35353c0,0.0505 -0.01618,0.15282 0,0.25252c0.02558,0.15765 0.0505,0.25253 0.0505,0.35353c0,0.0505 -0.02321,0.10371 0,0.20202c0.02595,0.10991 0.0505,0.25252 0.0505,0.30303c0,0.0505 0,0.15151 0,0.20202c0,0.10101 0,0.15152 0,0.25253c0,0.10101 0,0.20202 0,0.35353c0,0.10101 0,0.20202 0,0.35353c0,0.15151 -0.0505,0.30303 -0.10101,0.50505c-0.0505,0.20202 -0.06183,0.29812 -0.10101,0.40404c-0.07225,0.1953 -0.06508,0.39739 -0.15151,0.60606c-0.06112,0.14755 -0.0778,0.25523 -0.10101,0.35353c-0.02595,0.10991 -0.08483,0.20333 -0.10101,0.30303c-0.02558,0.15765 -0.10101,0.20202 -0.15151,0.35353c-0.0505,0.15152 -0.06755,0.31869 -0.15151,0.45454c-0.03755,0.06076 -0.0904,0.20598 -0.15152,0.35353c-0.08644,0.20867 -0.22658,0.34463 -0.25253,0.45455c-0.02321,0.09831 -0.07752,0.21771 -0.15151,0.30303c-0.10464,0.12066 -0.10975,0.29559 -0.15151,0.35353c-0.06603,0.09162 -0.08657,0.21271 -0.20202,0.35353c-0.09056,0.11047 -0.17267,0.22317 -0.25253,0.30303c-0.07985,0.07986 -0.11062,0.19604 -0.20202,0.35353c-0.05668,0.09768 -0.14993,0.27334 -0.25253,0.45455c-0.03519,0.06215 -0.13219,0.15536 -0.15152,0.20202c-0.02733,0.06599 -0.12216,0.12217 -0.20202,0.20202c-0.07985,0.07985 -0.03502,0.17469 -0.10101,0.20202c-0.04666,0.01933 -0.05805,0.02395 -0.10101,0.0505c-0.09607,0.05937 -0.08168,0.10485 -0.10101,0.15151c-0.02733,0.06599 -0.15151,0.15151 -0.20202,0.20202c-0.10101,0.10101 -0.15151,0.20202 -0.25252,0.25252c-0.10101,0.05051 -0.21951,0.18715 -0.30303,0.30303c-0.06603,0.09162 -0.11609,0.09841 -0.20202,0.15152c-0.09607,0.05937 -0.15906,0.17547 -0.20202,0.20202c-0.09607,0.05937 -0.10486,0.08168 -0.15152,0.10101c-0.06599,0.02733 -0.07166,0.12216 -0.15151,0.20202c-0.07986,0.07985 -0.14408,0.05925 -0.20202,0.10101c-0.09162,0.06603 -0.20202,0.15152 -0.25252,0.20202c-0.10101,0.10101 -0.20202,0.15152 -0.30303,0.20202c-0.10101,0.05051 -0.26818,0.16856 -0.40404,0.25252c-0.12152,0.0751 -0.21141,0.13599 -0.30303,0.20202c-0.11589,0.08352 -0.21271,0.13708 -0.35353,0.25253c-0.05524,0.04528 -0.10905,0.08135 -0.25253,0.15151c-0.16358,0.08001 -0.28815,0.21951 -0.40404,0.30303c-0.09162,0.06603 -0.20587,0.08168 -0.25253,0.10101c-0.13198,0.05467 -0.19604,0.16113 -0.35353,0.25253c-0.09768,0.05668 -0.19458,0.10975 -0.25253,0.15151c-0.09162,0.06603 -0.20598,0.1409 -0.35353,0.20202c-0.10434,0.04322 -0.23704,0.17469 -0.30303,0.20202c-0.09332,0.03865 -0.13945,0.07151 -0.30303,0.15151c-0.14347,0.07017 -0.25253,0.10101 -0.35353,0.15151c-0.10101,0.05051 -0.15548,0.0904 -0.30303,0.15152c-0.20867,0.08643 -0.25252,0.10101 -0.35353,0.15151c-0.10101,0.0505 -0.19604,0.06012 -0.35353,0.15152c-0.09768,0.05668 -0.20586,0.03118 -0.25252,0.0505c-0.06599,0.02733 -0.10318,0.03587 -0.15152,0.0505c-0.17428,0.05277 -0.20202,0.10101 -0.25252,0.10101c-0.05051,0 -0.08553,0.02317 -0.15152,0.0505c-0.13998,0.05798 -0.24362,0.02456 -0.35353,0.05051c-0.04915,0.0116 -0.10101,0 -0.20202,0.0505c-0.10101,0.0505 -0.19312,0.07506 -0.30303,0.10101c-0.09831,0.02321 -0.20202,0 -0.30303,0.0505c-0.10101,0.0505 -0.20202,0.0505 -0.30303,0.10101c-0.10101,0.05051 -0.19589,0.12593 -0.35353,0.15152c-0.04985,0.00809 -0.10101,0 -0.20202,0.0505c-0.10101,0.0505 -0.20472,0.0778 -0.30303,0.10101c-0.10991,0.02595 -0.15422,0.0273 -0.25252,0.0505c-0.10991,0.02595 -0.25523,0.0778 -0.35353,0.10101c-0.10991,0.02595 -0.13603,0.07368 -0.20202,0.10101c-0.13998,0.05798 -0.28026,0.04824 -0.45455,0.10101c-0.09667,0.02927 -0.15152,0 -0.20202,0c-0.0505,0 -0.08553,0.02317 -0.15152,0.0505c-0.04666,0.01933 -0.10101,0 -0.15152,0c-0.0505,0 -0.15152,0 -0.25252,0c-0.20202,0 -0.45455,0 -0.65656,0c-0.15152,0 -0.25252,0 -0.40404,0c-0.10101,0 -0.20202,0 -0.35353,0c-0.10101,0 -0.15152,0 -0.25253,0c-0.0505,0 -0.15152,0 -0.25252,0c-0.20202,0 -0.30303,0 -0.40404,0c-0.0505,0 -0.15152,0 -0.25252,0c-0.10101,0 -0.20202,0 -0.30303,0c-0.05051,0 -0.15152,0 -0.25252,0c-0.10101,0 -0.20202,0.05051 -0.30303,0.05051c-0.10101,0 -0.15151,0 -0.25252,0c-0.15151,0 -0.23704,0.02317 -0.30303,0.0505c-0.09332,0.03865 -0.14261,0.02456 -0.25252,0.0505c-0.14746,0.03481 -0.19312,0.02456 -0.30303,0.0505c-0.04915,0.0116 -0.10101,0 -0.20202,0c-0.0505,0 -0.08553,0.02317 -0.15151,0.0505c-0.09332,0.03865 -0.1592,-0.03865 -0.25253,0c-0.06599,0.02733 -0.10236,0.0389 -0.15151,0.0505c-0.10991,0.02595 -0.15422,0.0273 -0.25252,0.0505c-0.10991,0.02595 -0.24362,0.07507 -0.35353,0.10101c-0.09831,0.02321 -0.15151,0 -0.20202,0c-0.10101,0 -0.15422,0.0273 -0.25252,0.0505c-0.10991,0.02595 -0.15152,0.0505 -0.25252,0.0505c-0.0505,0 -0.14261,0.02456 -0.25252,0.0505c-0.09831,0.02321 -0.25252,0 -0.30303,0c-0.10101,0 -0.19312,0.02456 -0.30303,0.0505c-0.09831,0.02321 -0.20202,0 -0.30303,0c-0.0505,0 -0.10101,0 -0.15151,0c-0.0505,0 -0.16631,-0.03571 -0.20202,0c-0.03571,0.03571 -0.0505,0.0505 -0.10101,0.0505c-0.05051,0 -0.10101,0 -0.15152,0c-0.0505,0 -0.0653,0.01479 -0.10101,0.05051c-0.03571,0.03571 -0.10101,0 -0.15151,0c-0.10101,0 -0.15151,0 -0.20202,0c-0.0505,0 -0.10101,0 -0.15151,0c-0.0505,0 -0.10101,0 -0.15151,0c-0.0505,0 -0.10101,0 -0.15151,0c-0.0505,0 -0.0505,-0.05051 -0.10101,-0.05051c-0.0505,0 -0.0505,-0.0505 -0.15151,-0.10101l-0.10101,-0.10101l-0.10101,-0.10101l0,-0.05051" id="svg_21" stroke-width="1.5" stroke="#000" fill="none"/>
  <path d="m0.41922,31.22488c0,0 0,0 0,-0.0505c0,-0.30303 0.02513,-0.60231 0.0505,-0.85859c0.02488,-0.2513 0,-0.40404 0,-0.60606c0,-0.15152 0.0505,-0.25253 0.0505,-0.30303c0,-0.10101 0,-0.15152 0,-0.20202c0,-0.0505 0.0505,-0.15151 0.0505,-0.20202c0,-0.10101 0.0505,-0.20202 0.0505,-0.30303c0,-0.10101 0,-0.25253 0,-0.35353c0,-0.0505 0.05051,-0.10101 0.05051,-0.20202c0,-0.10101 0,-0.20202 0,-0.25252c0,-0.05051 0,-0.10101 0,-0.15152c0,-0.10101 0,-0.15151 0,-0.20202c0,-0.10101 0.02317,-0.13603 0.0505,-0.20202c0.01933,-0.04666 0,-0.15151 0,-0.20202c0,-0.0505 0,-0.15151 0,-0.20202c0,-0.10101 -0.00809,-0.20267 0,-0.25253c0.02558,-0.15765 0.0389,-0.30438 0.0505,-0.35353c0.02595,-0.10991 0.0505,-0.15151 0.0505,-0.20202c0,-0.15151 0,-0.20202 0,-0.30303c0,-0.05051 -0.0116,-0.10236 0,-0.15152c0.02595,-0.10991 0.0505,-0.20202 0.0505,-0.30303c0,-0.10101 0,-0.20202 0,-0.35353c0,-0.10101 0.0505,-0.25253 0.0505,-0.40404c0,-0.10101 0.02456,-0.29413 0.05051,-0.40404c0.02321,-0.09831 0.0505,-0.25253 0.0505,-0.40404c0,-0.0505 0,-0.20202 0,-0.25253c0,-0.10101 0,-0.15151 0,-0.20202c0,-0.0505 0,-0.15151 0,-0.20202c0,-0.10101 0.01618,-0.20333 0,-0.30303c-0.02558,-0.15765 -0.0505,-0.30303 -0.0505,-0.50505c0,-0.15152 0,-0.25253 0,-0.35353c0,-0.15152 -0.05051,-0.30303 -0.05051,-0.50505c0,-0.15151 0,-0.25253 0,-0.35353c0,-0.15151 -0.02506,-0.29837 -0.0505,-0.50505c-0.01851,-0.15038 -0.0505,-0.30303 -0.0505,-0.50505c0,-0.20202 -0.02506,-0.34888 -0.0505,-0.55555c-0.03085,-0.25063 0.03085,-0.45644 0,-0.70707c-0.02544,-0.20668 -0.0505,-0.45455 -0.0505,-0.75758c0,-0.30303 0,-0.50505 0,-0.75757c0,-0.20202 0.0811,-0.35452 0.10101,-0.55555c0.02538,-0.25627 0.07557,-0.44989 0.10101,-0.65656c0.01851,-0.15038 -0.02488,-0.30426 0,-0.55556c0.02538,-0.25627 0.05051,-0.55555 0.05051,-0.80808c0,-0.20202 0,-0.40404 0,-0.65656c0,-0.15152 0,-0.35353 0,-0.55555c0,-0.25252 0,-0.40404 0,-0.60606c0,-0.25253 0,-0.45455 0,-0.70707c0,-0.30303 0,-0.50505 0,-0.75757c0,-0.30303 0,-0.50505 0,-0.85858c0,-0.25252 0,-0.55555 0,-0.80808c0,-0.25253 -0.05051,-0.50505 -0.05051,-0.85858c0,-0.25253 0,-0.60606 0,-0.85858c0,-0.25252 0,-0.55555 0,-0.75757c0,-0.30303 0,-0.50505 0,-0.70707c0,-0.25252 0,-0.45454 0,-0.65656c0,-0.20202 -0.0505,-0.40404 -0.0505,-0.55555c0,-0.15152 0,-0.40404 0,-0.65656c0,-0.15151 0,-0.35353 0,-0.55555c0,-0.15152 -0.04912,-0.33573 -0.10101,-0.55555c-0.03481,-0.14746 0,-0.30303 0,-0.45454c0,-0.15152 0,-0.30303 0,-0.45454c0,-0.10101 0,-0.30303 0,-0.40404c0,-0.15152 0,-0.30303 0,-0.40404c0,-0.15151 0.02456,-0.29413 0.0505,-0.40404c0.02321,-0.09831 0,-0.15151 0,-0.20202l0,-0.0505l0,-0.0505l0,-0.0505" id="svg_22" stroke-width="1.5" stroke="#000" fill="none"/>
  <path d="m25.06564,13.90168c0.0505,0 0.01804,-0.21485 0.15152,-0.50505c0.12305,-0.26755 0.2585,-0.50217 0.35353,-0.70707c0.16183,-0.34893 0.40404,-0.75758 0.60606,-0.95959c0.20202,-0.20202 0.38917,-0.32051 0.50505,-0.40404c0.09162,-0.06603 0.23472,-0.09962 0.45454,-0.15152c0.24577,-0.05802 0.50427,0.00408 0.75757,0.05051c0.30218,0.05538 0.75659,0.20535 1.26262,0.35353c0.35286,0.10333 0.65943,0.19785 0.80808,0.30303c0.20615,0.14585 0.3901,0.36478 0.55556,0.55556c0.14039,0.16187 0.30303,0.25252 0.35353,0.35353c0.0505,0.10101 0.15151,0.40404 0.30303,0.75757c0.15151,0.35353 0.18211,0.60704 0.20202,0.80808c0.02538,0.25627 0.08982,0.60762 0.15152,1.0101c0.08556,0.55814 0.17664,0.95585 0.20202,1.21212c0.02488,0.2513 -0.00729,0.40071 -0.0505,0.50505c-0.06112,0.14755 -0.07674,0.30499 -0.10101,0.45454c-0.02558,0.15765 -0.12046,0.32182 -0.25253,0.50505c-0.08352,0.11589 -0.23302,0.26752 -0.35353,0.40404c-0.07474,0.08466 -0.23302,0.21702 -0.35353,0.35353c-0.07474,0.08466 -0.16443,0.23236 -0.25253,0.30303c-0.16243,0.1303 -0.45089,0.16322 -0.75757,0.25253c-0.19993,0.05822 -0.35353,0.0505 -0.45454,0.0505c-0.20202,0 -0.45454,-0.10101 -0.75757,-0.25252c-0.30303,-0.15152 -0.5637,-0.39123 -0.80808,-0.55556c-0.20956,-0.14091 -0.45454,-0.35353 -0.60606,-0.55556c-0.15151,-0.20202 -0.27001,-0.33866 -0.35353,-0.45454c-0.06603,-0.09162 -0.16,-0.29901 -0.25253,-0.50505c-0.11142,-0.24811 -0.17054,-0.54986 -0.25253,-0.85859c-0.0661,-0.2489 -0.09833,-0.5056 -0.15151,-0.75757c-0.09617,-0.45559 -0.15559,-0.8073 -0.20202,-1.0606c-0.05538,-0.30218 -0.13533,-0.50635 -0.15151,-0.60606c-0.02558,-0.15765 -0.07543,-0.24639 -0.10101,-0.40404c-0.01618,-0.0997 0,-0.15152 0,-0.20202l0,-0.0505" id="svg_23" stroke-width="1.5" stroke="#000" fill="none"/>
 </g>
</svg>