<?xml version="1.0" encoding="UTF-8" standalone="no"?>
<!DOCTYPE svg PUBLIC "-//W3C//DTD SVG 1.1//EN" "http://www.w3.org/Graphics/SVG/1.1/DTD/svg11.dtd">
<svg version="1.1" xmlns="http://www.w3.org/2000/svg" xmlns:xlink="http://www.w3.org/1999/xlink" preserveAspectRatio="xMidYMid meet" viewBox="0 0 640 640" width="100" height="100"><defs><path d="M200 100C200 155.19 155.19 200 100 200C44.81 200 0 155.19 0 100C0 44.81 44.81 0 100 0C155.19 0 200 44.81 200 100Z" id="b1Qm3ouP2V"></path><path d="M187.5 99.99C187.5 148.29 148.3 187.49 100 187.49C51.71 187.49 12.5 148.29 12.5 99.99C12.5 51.7 51.71 12.49 100 12.49C148.3 12.49 187.5 51.7 187.5 99.99Z" id="bi2jwz6NI"></path><path d="M0 0L100 0L100 200L0 200L0 0Z" id="gbUeBqMi5"></path><path d="M12.5 12.49L102.97 12.49L102.97 187.49L12.5 187.49L12.5 12.49Z" id="b9iirwBQct"></path><path d="M241.29 100C241.29 113.8 230.09 125 216.29 125C202.49 125 191.29 113.8 191.29 100C191.29 86.2 202.49 75 216.29 75C230.09 75 241.29 86.2 241.29 100Z" id="dMECXBHlG"></path><path d="M228.79 100C228.79 106.9 223.19 112.5 216.29 112.5C209.39 112.5 203.79 106.9 203.79 100C203.79 93.1 209.39 87.5 216.29 87.5C223.19 87.5 228.79 93.1 228.79 100Z" id="bahbp6zmT"></path></defs><g><g><g><use xlink:href="#b1Qm3ouP2V" opacity="1" fill="#000000" fill-opacity="1"></use></g><g><use xlink:href="#bi2jwz6NI" opacity="1" fill="#ffffff" fill-opacity="1"></use></g><g><use xlink:href="#gbUeBqMi5" opacity="1" fill="#000000" fill-opacity="1"></use></g><g><use xlink:href="#b9iirwBQct" opacity="1" fill="#ffffff" fill-opacity="1"></use></g><g><use xlink:href="#dMECXBHlG" opacity="1" fill="#000000" fill-opacity="1"></use></g><g><use xlink:href="#bahbp6zmT" opacity="1" fill="#ffffff" fill-opacity="1"></use></g></g></g></svg>