<?xml version="1.0" encoding="UTF-8" standalone="no"?>
<!DOCTYPE svg PUBLIC "-//W3C//DTD SVG 1.1//EN" "http://www.w3.org/Graphics/SVG/1.1/DTD/svg11.dtd">
<svg version="1.1" xmlns="http://www.w3.org/2000/svg" xmlns:xlink="http://www.w3.org/1999/xlink" preserveAspectRatio="xMidYMid meet" viewBox="0 0 32 32" width="32" height="32"><defs><path d="M32 16C32 24.83 24.83 32 16 32C7.17 32 0 24.83 0 16C0 7.17 7.17 0 16 0C24.83 0 32 7.17 32 16Z" id="aPhWUF9bL"></path><path d="M30 16C30 23.73 23.73 30 16 30C8.28 30 2 23.73 2 16C2 8.27 8.28 2 16 2C23.73 2 30 8.27 30 16Z" id="c2A3y42Eih"></path><path d="M0 0L16 0L16 32L0 32L0 0Z" id="bgNGEPEiH"></path><path d="M2 2L16.48 2L16.48 30L2 30L2 2Z" id="c2Mk95x7W"></path><path d="M43.67 16.7C43.67 18.91 42.18 20.7 40.35 20.7C38.52 20.7 37.04 18.91 37.04 16.7C37.04 14.49 38.52 12.7 40.35 12.7C42.18 12.7 43.67 14.49 43.67 16.7Z" id="g5zB0SRFX"></path><path d="M42.01 16.7C42.01 17.81 41.27 18.7 40.35 18.7C39.44 18.7 38.69 17.81 38.69 16.7C38.69 15.6 39.44 14.7 40.35 14.7C41.27 14.7 42.01 15.6 42.01 16.7Z" id="egWMMPLMT"></path></defs><g><g><g><use xlink:href="#aPhWUF9bL" opacity="1" fill="#000000" fill-opacity="1"></use></g><g><use xlink:href="#c2A3y42Eih" opacity="1" fill="#ffffff" fill-opacity="1"></use></g><g><use xlink:href="#bgNGEPEiH" opacity="1" fill="#000000" fill-opacity="1"></use></g><g><use xlink:href="#c2Mk95x7W" opacity="1" fill="#ffffff" fill-opacity="1"></use></g><g><use xlink:href="#g5zB0SRFX" opacity="1" fill="#000000" fill-opacity="1"></use></g><g><use xlink:href="#egWMMPLMT" opacity="1" fill="#ffffff" fill-opacity="1"></use></g></g></g></svg>