<?xml version="1.0" standalone="no"?>
<!DOCTYPE svg PUBLIC "-//W3C//DTD SVG 20010904//EN"
 "http://www.w3.org/TR/2001/REC-SVG-20010904/DTD/svg10.dtd">
<svg version="1.0" xmlns="http://www.w3.org/2000/svg"
 width="128.000000pt" height="128.000000pt" viewBox="0 0 128.000000 128.000000"
 preserveAspectRatio="xMidYMid meet">
<metadata>
Created by potrace 1.16, written by Peter Selinger 2001-2019
</metadata>
<g transform="translate(0.000000,128.000000) scale(0.100000,-0.100000)"
fill="#000000" stroke="none">
<path d="M0 643 l0 -633 323 -2 c394 -3 428 -2 497 18 266 77 460 335 460 614
0 279 -194 537 -460 614 -45 13 -124 16 -438 18 l-382 3 0 -632z m831 574
c186 -63 332 -213 392 -402 31 -98 31 -252 0 -350 -60 -189 -206 -339 -392
-402 -64 -22 -79 -22 -440 -23 l-374 0 6 257 c4 141 7 411 7 600 l0 343 368 0
c353 -1 369 -1 433 -23z"/>
</g>
</svg>
